<?xml version="1.0" standalone="no"?>
<!DOCTYPE svg PUBLIC "-//W3C//DTD SVG 20010904//EN"
 "http://www.w3.org/TR/2001/REC-SVG-20010904/DTD/svg10.dtd">
<svg version="1.0" xmlns="http://www.w3.org/2000/svg"
 width="1024.000000pt" height="1024.000000pt" viewBox="0 0 1024.000000 1024.000000"
 preserveAspectRatio="xMidYMid meet">
<metadata>
Created by potrace 1.14, written by Peter Selinger 2001-2017
</metadata>
<g transform="translate(0.000000,1024.000000) scale(0.100000,-0.100000)"
fill="#000000" stroke="none">
<path d="M807 9564 c-3 -3 -20 -8 -39 -11 -31 -5 -86 -30 -98 -44 -3 -4 -28
-20 -56 -38 -49 -29 -85 -77 -137 -176 -8 -16 -27 -52 -42 -80 -25 -48 -26
-54 -20 -170 7 -158 14 -352 20 -555 3 -91 7 -199 9 -240 3 -41 6 -316 7 -610
2 -294 6 -543 11 -552 5 -10 4 -19 -2 -23 -6 -4 -8 -10 -5 -15 3 -5 7 -52 10
-105 5 -102 16 -159 37 -188 7 -9 42 -25 78 -36 l65 -18 -3 -544 c-1 -299 -2
-571 -2 -604 0 -33 0 -69 1 -80 0 -11 -1 -48 -1 -82 0 -34 0 -66 1 -70 1 -4 1
-11 0 -15 -4 -17 -3 -119 1 -123 2 -3 2 -28 -2 -57 -3 -29 -3 -72 1 -95 3 -24
1 -43 -3 -43 -5 0 -7 -3 -4 -8 2 -4 7 -127 10 -272 4 -146 8 -276 10 -290 4
-25 14 -141 22 -255 11 -163 14 -233 20 -380 3 -88 7 -161 9 -163 2 -2 -1 -16
-7 -31 -16 -43 -27 -257 -15 -291 16 -40 21 -247 12 -414 -6 -102 -5 -110 17
-142 13 -19 26 -34 31 -34 4 0 7 -5 7 -12 0 -6 8 -20 17 -30 10 -12 17 -38 19
-71 2 -46 -5 -67 -45 -148 l-46 -94 -2 -195 c-1 -107 2 -222 7 -255 5 -33 11
-76 13 -95 3 -19 11 -60 17 -90 6 -30 13 -66 15 -80 2 -14 6 -41 10 -60 4 -19
8 -55 10 -80 7 -74 25 -222 35 -275 5 -27 11 -63 14 -80 2 -16 7 -41 10 -55 3
-14 7 -38 10 -55 12 -78 38 -179 56 -214 39 -78 135 -134 250 -147 77 -9 219
-34 244 -43 37 -15 145 -39 231 -51 107 -16 119 -18 200 -26 39 -3 84 -8 100
-11 17 -2 134 -6 260 -8 231 -4 419 -11 530 -20 239 -20 394 -25 417 -13 9 4
19 4 22 -1 3 -5 27 -7 53 -4 27 2 104 6 173 8 69 3 195 8 280 11 180 8 881 12
894 5 12 -6 195 -4 406 4 188 7 220 8 350 19 210 16 364 19 1130 22 448 1 840
5 870 7 30 3 177 8 325 12 267 7 304 8 540 19 66 3 192 9 280 12 194 7 271 13
405 29 25 3 83 8 128 10 75 3 93 8 177 50 103 51 184 116 209 169 9 19 27 48
39 63 31 37 43 71 66 177 18 83 20 135 21 697 1 587 0 609 -21 685 -11 44 -34
98 -49 120 -44 62 -54 174 -16 174 17 0 64 54 78 89 30 75 32 139 30 1386 0
154 2 390 4 525 7 384 10 850 4 850 -5 0 -3 625 2 935 3 156 5 162 48 170 64
12 152 39 197 60 l52 23 -1 54 c0 29 3 175 7 323 4 149 8 298 9 333 0 34 3 62
6 62 5 0 5 424 0 445 -5 20 -5 385 0 385 3 0 4 107 3 238 -1 130 -2 257 -2
282 1 61 0 104 -3 173 -2 33 0 61 5 64 4 2 4 9 1 15 -9 15 -15 61 -17 133 -2
63 -25 115 -51 115 -8 0 -16 4 -18 8 -5 15 -221 95 -260 98 -20 1 -41 5 -47 9
-6 3 -11 2 -11 -4 0 -7 -8 -7 -24 -1 -13 5 -26 6 -29 4 -3 -3 -36 -5 -74 -5
-99 2 -97 2 -235 1 -70 -1 -132 1 -137 4 -5 4 -12 2 -15 -2 -3 -5 -25 -6 -48
-3 -24 4 -56 4 -73 1 -16 -3 -51 -3 -77 0 -28 4 -45 2 -41 -3 3 -5 -3 -7 -13
-3 -20 6 -54 7 -147 6 -32 0 -62 2 -67 5 -5 3 -11 1 -15 -4 -3 -6 -15 -7 -28
-2 -12 5 -31 5 -42 1 -11 -4 -34 -4 -52 1 -18 4 -35 4 -38 -1 -2 -4 -25 -4
-50 0 -25 4 -45 4 -45 1 0 -7 -102 -4 -133 3 -10 2 -14 0 -11 -6 4 -6 -1 -8
-14 -4 -25 8 -121 10 -128 3 -3 -3 -21 -1 -40 3 -18 4 -34 5 -34 1 0 -8 -76
-5 -89 4 -5 3 -12 2 -15 -3 -3 -5 -17 -7 -33 -6 -48 5 -74 5 -228 5 -182 0
-195 -1 -220 -5 -11 -2 -26 1 -32 7 -9 6 -13 6 -13 -1 0 -7 -10 -8 -29 -2 -16
4 -32 6 -35 3 -8 -8 -195 -5 -208 3 -7 5 -8 3 -3 -6 5 -9 2 -10 -11 -6 -20 6
-54 7 -147 6 -32 0 -62 2 -67 5 -5 3 -11 1 -14 -3 -3 -5 -26 -6 -51 -2 -25 4
-45 4 -45 1 0 -7 -107 -4 -127 4 -6 2 -13 0 -15 -4 -2 -5 -24 -6 -50 -1 -27 4
-48 4 -48 1 0 -7 -97 -4 -117 4 -7 2 -13 0 -13 -5 0 -5 -10 -7 -21 -5 -24 5
-62 6 -157 5 -35 0 -68 3 -74 6 -7 4 -8 2 -4 -4 7 -11 -9 -10 -76 3 -10 2 -18
0 -18 -3 0 -4 -30 -6 -67 -4 -66 2 -90 2 -203 -1 -31 0 -61 2 -68 7 -6 4 -12
3 -12 -3 0 -7 -8 -7 -22 -2 -13 5 -32 5 -43 1 -11 -4 -32 -4 -47 1 -14 4 -29
5 -32 2 -7 -7 -263 -6 -275 1 -5 4 -12 2 -15 -2 -3 -5 -25 -6 -48 -3 -24 4
-56 4 -73 1 -16 -3 -51 -3 -77 0 -28 4 -45 2 -41 -3 3 -5 -3 -7 -13 -3 -20 6
-54 7 -147 6 -32 0 -62 2 -67 5 -5 3 -11 1 -15 -4 -3 -6 -15 -7 -28 -2 -12 5
-31 5 -42 1 -11 -4 -34 -4 -52 1 -18 4 -35 4 -38 -1 -2 -4 -25 -4 -50 0 -25 4
-45 4 -45 1 0 -7 -107 -4 -127 4 -6 2 -13 0 -15 -4 -2 -5 -24 -6 -50 -1 -27 4
-48 4 -48 1 0 -7 -88 -4 -107 4 -7 2 -13 1 -13 -3 0 -9 -75 -6 -89 3 -5 3 -12
2 -15 -3 -3 -5 -20 -7 -38 -5 -40 4 -96 4 -123 -1 -11 -2 -26 1 -32 7 -9 6
-13 6 -13 -1 0 -7 -10 -8 -29 -2 -16 4 -32 6 -34 4 -4 -5 -38 -5 -152 -4 -22
0 -49 -2 -60 -4 -11 -2 -26 1 -32 7 -9 6 -13 6 -13 -1 0 -7 -10 -8 -29 -2 -16
4 -32 6 -35 3 -8 -8 -195 -5 -208 3 -7 4 -8 3 -4 -4 7 -11 -9 -10 -76 3 -10 2
-18 0 -18 -4 0 -7 -106 -4 -127 4 -7 2 -15 1 -17 -4 -3 -4 -26 -5 -51 -1 -25
4 -45 4 -45 1 0 -7 -102 -4 -133 3 -9 2 -15 0 -12 -5 5 -8 -18 -6 -77 6 -10 2
-18 0 -18 -4 0 -7 -106 -4 -127 4 -7 2 -15 1 -17 -4 -3 -4 -26 -5 -51 -1 -25
4 -45 4 -45 1 0 -7 -102 -4 -133 3 -9 2 -15 0 -12 -5 5 -8 -18 -6 -77 6 -10 2
-18 0 -18 -3 0 -4 -33 -6 -72 -4 -40 2 -77 3 -83 3 -5 0 -75 0 -155 0 -80 -1
-154 -1 -165 0 -11 0 -79 -1 -152 -1 -73 -1 -137 1 -142 4 -5 4 -12 2 -15 -2
-3 -5 -25 -6 -48 -3 -24 4 -56 4 -73 1 -16 -3 -51 -3 -77 0 -26 4 -45 3 -42
-2 4 -7 -20 -5 -78 7 -10 2 -18 0 -18 -3 0 -8 -75 -7 -88 2 -5 3 -12 3 -15 0z"/>
</g>
</svg>
