
<svg xmlns="http://www.w3.org/2000/svg" version="1.1" xmlns:xlink="http://www.w3.org/1999/xlink" preserveAspectRatio="none" x="0px" y="0px" width="698px" height="221px" viewBox="0 0 698 221">
<defs>
<g id="Logo_8_0_Layer0_0_FILL">
<path fill="#FFFFFF" stroke="none" d="
M -105.45 -4.3
Q -107.2 -3.6 -109.2 -3.75 -109.75 -3.8 -110.25 -3.9 -113 -2.9 -115.1 -0.6 -115.95 2.55 -116 5.8 -116.1 10.1 -116.1 14.4 -116.05 14.65 -115.95 15.05 -114.7 20.35 -114.95 28.1 -115.55 36.95 -115.7 41.35 -115.9 46.4 -116 48.15 -116.05 53.3 -116.15 58.55 -116.05 59.25 -115.95 60.05 -115.45 63.65 -115.95 65.8 -116.25 66.85 -116.4 67.5 -116.4 67.55 -116.4 67.6 -116.45 68.6 -116.45 69.6 -116.25 70.2 -115.15 71.35 -114.2 72.4 -114.1 73.2 -113.95 73.7 -114.15 74.45
L -114.4 75.65
Q -114.45 76.25 -114.3 77.05 -114.15 78.1 -114.15 78.45 -114.1 78.75 -114.1 79.15 -113.95 79.1 -113.85 79.1 -113.5 79.75 -113.85 80.3
L -114.25 80.75
Q -114.3 80.8 -114.35 80.9 -114.6 81.8 -114.95 83.05
L -116.4 87.7
Q -116.6 88.05 -116.65 88.45 -116.65 90.2 -116.6 91.85 -116.35 92.7 -116.3 92.95 -116 94.7 -116.45 95.95 -116.35 101.4 -116.05 106.85 -115.05 108.15 -113.4 107.9 -104.05 106.25 -94.75 108.4 -86.2 110.35 -77.85 108.3 -76.85 107.55 -76.7 106.35 -75.8 100.65 -75.3 94.85 -74.8 89.3 -74.6 83.75 -73 85.35 -71.45 86.95 -67.1 91.6 -63.9 96.25 -62.6 98.1 -61.25 99.95 -60.5 103.25 -58.75 105.95 -57.9 106.1 -57.9 105.3 -57.9 104.95 -57.9 104.55 -57.4 105.2 -56.95 105.8 -57 105.85 -57 105.9 -57.45 106.45 -57.2 107.1 -57 107.75 -56.35 107.95 -55.65 108 -54.95 108 -49 107.95 -43.1 108.05 -37 108.15 -31.05 107.05 -30.65 107.2 -30.15 107.35 -29.2 107.45 -28.35 106.95 -27.45 106.45 -27 105.55 -26.65 104.95 -26.15 103.65 -25.9 103.3 -25.5 103 -26.05 96.9 -27.3 90.75 -27.6 89.2 -27.9 87.6 -28.3 87.65 -28.65 87.5 -29.85 87.05 -30.6 84.7 -31.25 82.65 -32.05 80.75 -32.55 80.45 -33.1 80.1 -36.05 78 -35.85 76 -35.8 75.55 -35.7 74.75 -35.7 74.3 -36 73.7
L -36.45 72.65
Q -36.6 72.15 -36.6 71.6 -39.05 67.6 -42.1 64 -43.55 62.25 -43.55 61.1 -43.6 60.05 -42.3 58.45 -42.6 58.25 -42.9 58.1 -39.45 53.45 -38.9 47.75 -38.65 44.95 -38.4 42.1
L -45.1 42.9
Q -46.05 43 -46.8 43.05 -47 42.75 -47.35 42.75 -48.6 42.7 -49.85 41.95 -51.35 41 -53 40.8 -53.3 40.85 -53.6 40.95 -54.85 41.6 -56 42.45 -56.05 42.45 -56.05 42.5 -57.6 42.45 -60.85 42.95 -62.55 43.25 -63.8 43.35 -65.1 46.4 -67.6 47.9 -69.2 48.9 -72.55 49.45 -74.75 49.85 -75.9 49.3 -78.25 48.25 -78.35 43.65 -78.45 41.6 -78.35 36 -78.35 31.1 -78.55 28.3 -78.8 26.3 -78.75 25.25 -78.55 23.55 -77.8 22.65 -76.6 21.15 -74.4 21.25 -73.15 21.25 -70.75 22 -68.25 22.8 -67.2 23.25 -65.35 24.15 -64.3 25.4 -62.35 27.8 -62.35 33.45 -62.35 37.4 -62.8 39.95 -60.5 39.65 -57.55 39.8 -50.1 40.05 -48.7 39.95 -46.5 39.8 -42.15 38.9 -40.6 38.65 -38.15 38.35 -37.45 23.45 -39.1 8.65 -39.35 6.3 -41.05 4.75 -45.25 0.85 -50.5 -1.25 -51.5 -0.8 -52.85 -0.55 -56.55 0.1 -58.6 -1.35 -59.1 -1.7 -60.1 -2.7 -60.7 -3.35 -61.15 -3.75 -65.65 -4.4 -70.15 -4.75 -71.85 -4.65 -73.85 -4.35 -80.8 -3.35 -82.55 -3.25 -85.7 -3 -92.05 -3.2
L -98.85 -3.45
Q -103.5 -3.65 -105.45 -4.3
M -51.75 43
Q -52.35 42.95 -53 42.85 -52.9 42.8 -52.75 42.7 -52.25 42.85 -51.75 43
M -127.15 -106.25
Q -127.25 -106.25 -127.3 -106.2
L -128.2 -100.95 -128.2 -99.55
Q -128.15 -96.65 -128.05 -93.7 -127.85 -93.05 -127.45 -92 -126.5 -89.45 -126.5 -88.3 -126.5 -87.45 -126.8 -86.25 -127.2 -84.9 -127.4 -84.25 -127.45 -83.9 -127.55 -83.55 -126.8 -70.35 -126.85 -57.1 -126.9 -49.1 -126.9 -41.1 -126.55 -41.2 -125.95 -41.15
L -119.75 -40.4
Q -121.15 -40.1 -122.6 -39.85 -122.7 -39.8 -122.8 -39.7 -122.95 -39.65 -123.05 -39.6 -123.15 -39.55 -123.25 -39.5 -123.45 -39.45 -123.7 -39.4 -124.25 -39.2 -124.8 -39.05 -125.25 -38.9 -125.55 -38.6 -125.6 -38.55 -125.65 -38.5 -125.7 -38.45 -125.7 -38.4 -126.45 -38.55 -126.9 -38.8 -126.95 -33.9 -126.95 -29 -126.95 -23.95 -124.95 -19.5 -124.5 -18.45 -123.35 -18.35 -111.75 -17.45 -100 -17.2 -93.75 -16.85 -87.75 -18.55 -81.65 -20.25 -76.95 -24.45 -71.8 -29 -69.6 -35.55 -66.8 -43.8 -66.5 -52.55 -66.3 -59.6 -66.45 -66.6 -66.55 -70.9 -66.95 -75.15 -66.4 -77.95 -66.2 -80.75 -65.95 -83.95 -68.45 -86.05 -68.5 -86.25 -68.55 -86.4 -68.55 -86.65 -68.55 -86.85 -69.25 -87.4 -69.6 -88 -70.2 -88.95 -70.2 -91.55 -70.2 -93.8 -70.4 -95.95 -70.8 -96.7 -71.25 -97.35 -72.45 -99.05 -73.9 -100.25 -78.05 -104.65 -84.85 -105.6 -91.8 -106.6 -98.8 -106.35 -112.8 -105.9 -126.75 -106.35 -126.95 -106.3 -127.15 -106.25
M -97.6 -79.05
Q -95.05 -78.75 -93.8 -78.1 -91.05 -76.8 -89.7 -73.05 -89.45 -72.35 -89.25 -71.45 -89.75 -67.25 -90.5 -63.1 -91.5 -57.65 -89.05 -53 -89.05 -52.9 -89.05 -52.8 -89.05 -52.55 -89.1 -52.35 -89.1 -52.1 -89.15 -51.9 -89.35 -51.3 -89.45 -50.75 -89.8 -48.65 -89.95 -46.5 -91.65 -45 -93.4 -43.55 -93.45 -43.55 -93.5 -43.55 -96.3 -43.15 -99.05 -42.75 -99.45 -42.6 -99.75 -42.3 -101.25 -41.05 -102.5 -40.3 -103.8 -39.5 -104.4 -38.35 -104.5 -38.35 -104.55 -38.3 -105.35 -39.1 -106.55 -39.2 -108.2 -39.35 -109.8 -39.45 -109.95 -39.5 -110 -39.6 -110.1 -39.8 -110.25 -39.95 -110.35 -40.1 -110.55 -40.25 -110.7 -40.4 -110.9 -40.45
L -110.95 -40.45
Q -109.45 -40.95 -108.8 -41.3 -108.35 -41.5 -107.5 -41.9 -107.15 -41.65 -106.75 -41.7 -106 -41.75 -105.3 -41.85 -104.75 -42.05 -104.25 -42.25 -103.75 -42.45 -103.4 -42.85 -102.95 -43.45 -102.85 -44.2 -102.7 -45.3 -102.7 -46.35 -102.85 -47.05 -103.3 -47.6 -103.85 -48.3 -104.1 -49.1 -104.1 -49.9 -103.7 -50.65 -103.1 -51.7 -103 -52.9 -103 -53.45 -103.2 -53.9 -103.55 -54.8 -103.65 -55.7 -103.55 -56.7 -103.5 -58.3 -103.25 -63.2 -103.45 -68.1 -103.65 -73.3 -104.55 -78.35 -104.6 -78.75 -104.7 -79.15 -103.9 -79.3 -102.9 -79.35 -100.2 -79.35 -97.6 -79.05
M -90 -43.6
L -90 -43.55 -90.05 -43.55 -90 -43.6
M -45.55 -106.8
Q -48.45 -107.15 -50.15 -105.8 -53.5 -105 -56.75 -103.8 -56.95 -103.45 -56.95 -103 -57.45 -95.3 -57.25 -87.5 -57.15 -83.85 -57.05 -80.15 -56.9 -80.5 -56.75 -80.95 -56.65 -78.8 -56.8 -76.65 -56.85 -75.5 -56.6 -74.45 -56.8 -74.15 -56.95 -73.95 -56.85 -66.65 -56.85 -59.35 -56.9 -45.3 -58.3 -31.35 -58.85 -26 -57.4 -20.95 -57.1 -19.9 -56.15 -19.6 -49.45 -17.5 -42.25 -17.45 -35.5 -17.4 -28.7 -17.3 -28.6 -17.45 -28.45 -17.55 -27.65 -18.2 -25.6 -18.1
L -21.5 -18
Q -19.3 -17.9 -18 -18.25 -17.45 -18.4 -16.35 -18.8 -15.4 -19.05 -14.75 -18.85 -13.9 -18.55 -13.35 -17.5 -13.2 -17.25 -13.1 -17.05 -7.85 -16.65 -6.45 -21.75 -5.5 -25.25 -5.6 -28.95 -5.8 -36.4 -6.5 -43.6 -7.3 -44.5 -8.5 -44.85 -13.1 -46.15 -17.9 -46 -22.8 -45.85 -27.4 -46.95 -27.45 -47.2 -27.5 -47.5 -27.65 -48.65 -27.7 -49.8 -27.7 -51.05 -27.6 -52.3 -26.95 -52.3 -26.25 -52.35 -22.95 -52.65 -19.7 -52.45 -16.55 -52.3 -13.9 -53.7 -13 -55 -13.05 -56.65 -13.1 -63.45 -13.3 -70.3 -13.35 -71.5 -14.35 -72.05 -14.85 -72.3 -15.35 -72.55 -16.1 -72.65 -17.05 -72.95 -18.05 -73.3 -18.4 -73.2 -18.6 -73.15 -19.55 -72.7 -21.15 -72 -21.95 -73.05 -22.3 -73.7 -22.5 -74
L -22.8 -74.55
Q -24.25 -74.7 -25.75 -74.7 -25.9 -75.15 -25.95 -75.6 -26.1 -77.1 -26.15 -78.55 -26.2 -80.05 -26.1 -81.5 -22.7 -81.6 -19.25 -81.55 -17 -81.5 -14.8 -81.2 -10.4 -80.55 -6.65 -82.45 -6.45 -82.65 -6.45 -83 -5.55 -93.9 -6.95 -104.9 -7.05 -105.6 -7.6 -105.85 -14.75 -108.75 -22.85 -107.6 -26.4 -107.1 -29.95 -107.4 -37.95 -108.1 -45.55 -106.8
M -194.6 -1.75
Q -196.2 -1.45 -197.2 -2.15 -197.6 -2.4 -198.6 -3.65 -199.1 -4.2 -199.55 -4.5 -202.9 -2.85 -203.8 2.25 -203.75 2.4 -203.75 2.55 -203.65 2.7 -203.6 2.85 -203.55 2.95 -203.45 3.15 -203.4 3.25 -203.35 3.35 -203.25 3.45 -203.2 3.6 -203.45 14.95 -203.05 26.55 -202.3 46.3 -203.65 66 -204 70.5 -204.15 75 -203.75 75.6 -203.4 76.4 -203.4 81.35 -203.8 86.35 -204.25 92.75 -203.95 99.1 -203.85 99.35 -203.75 99.55 -203.5 100.25 -203.4 101.05 -203.4 101.2 -203.3 101.4 -203.45 101.5 -203.6 101.65 -203.4 104.3 -203.15 106.95 -202.9 107.45 -202.5 107.8 -201 109.1 -199.1 109.25 -197.3 109.4 -195.55 109.5 -193.75 109.55 -191.9 109.25 -185.05 108.25 -178.2 108.95 -171.25 109.65 -164.45 107.7 -164.3 107.65 -164.2 107.6 -164.1 107.55 -163.95 107.5 -163.85 107.45 -163.75 107.3 -163.65 107.2 -163.55 107.15 -162.7 106.25 -162.6 105 -161.7 96.3 -161.9 87.5 -162.1 80.85 -161.9 74.2 -160.95 74.3 -159.95 74.4 -145.75 74.3 -132.7 68.7 -130.95 67.9 -130.1 66.2 -122.8 51.45 -124.3 34.2 -124.9 27.15 -125 20.2 -125.2 8.25 -132.2 2.05 -136.95 -4.5 -146.65 -4.55 -153.5 -4.6 -160.3 -4.4 -167.5 -4.1 -174.7 -4.1 -174.9 -4 -175.15 -3.95 -177.7 -3.3 -183.55 -3.4 -189 -3.5 -191.8 -2.6 -194.35 -1.8 -194.6 -1.75
M -155 16.35
Q -153.8 16.6 -151.4 16.9 -149.3 17.3 -148.05 18.25 -145.55 20.2 -145.3 24.6 -145.2 26 -145.3 28.2 -145.5 31.05 -145.5 31.8 -145.4 34.35 -145.4 35.55 -145.4 37.8 -146 39.3 -146.65 41.25 -149 43.65 -151.5 46.2 -153.4 46.95 -154.85 47.6 -156.8 47.65 -158 47.65 -160.35 47.4 -161.7 47.3 -162.25 46.75 -162.95 46.05 -162.85 43.95 -162.6 39.85 -162.95 34 -163.2 30.7 -163.75 24.1 -164.15 17.85 -161.3 16.25 -160.1 15.55 -158.2 15.75 -157.2 15.85 -155 16.35
M -186.1 -106
Q -188.35 -106 -190.6 -105.9 -201.6 -105.55 -205.2 -96.4
L -210.1 -93.6
Q -214.75 -90.9 -216.4 -89.7 -218.85 -87.85 -220.1 -87.05 -222.15 -85.65 -223.9 -85.05 -223.95 -81.45 -224 -77.8 -224.2 -63.75 -223.65 -49.75 -223.45 -44.75 -223.3 -39.8 -223.05 -39.35 -222.6 -38.5 -221.95 -37.3 -221.65 -36.75 -221.1 -35.65 -221 -34.85 -220.8 -33.8 -221.45 -31.35
L -222.65 -27
Q -222.7 -26.75 -222.8 -26.45 -222.7 -24 -222.6 -21.55 -222.55 -20.35 -221.65 -19.7 -216.5 -15.9 -209.7 -16.7 -205.25 -16.65 -200.8 -16.75 -200.75 -17.35 -200.55 -18 -199.6 -17.7 -198.6 -17.45 -198.45 -17.45 -198.35 -17.4 -198.2 -17.4 -198.05 -17.4 -197.95 -17.35 -197.8 -17.35 -197.7 -17.35 -197.6 -17.35 -197.5 -17.4 -197.4 -17.4 -197.2 -17.45 -197 -17.55 -196.9 -17.6 -196.8 -17.65 -196.6 -17.75 -196.4 -17.9 -195.75 -18.5 -195.6 -19.45 -194.5 -25.85 -195.15 -32.3 -195.35 -34.6 -195.65 -36.85 -194.65 -34.8 -193.7 -32.7 -190.85 -26.45 -186.45 -22.2 -185.8 -20.65 -185.1 -19.05 -185.05 -18.9 -184.95 -18.75 -182.9 -18.75 -180.8 -18.7 -175.7 -18.6 -170.75 -19.2 -170.65 -19.2 -170.6 -19.2 -160.75 -17.4 -150.6 -17 -146.85 -16.9 -143.2 -16.75 -136.7 -16.5 -136.65 -22.5 -136.6 -29.75 -137.8 -36.9 -139.95 -49.45 -139.6 -62.25 -139.6 -62.3 -139.6 -62.35 -139.6 -62.55 -139.6 -62.85 -139.5 -66.4 -139.35 -69.95 -139.6 -70.8 -139.95 -71.5 -140.55 -72.7 -140.6 -73 -140.7 -73.55 -140.45 -74.35 -140.3 -74.8 -140 -75.7 -139.7 -76.6 -139.45 -78.5 -139.35 -79.25 -139 -79.95 -138.8 -86.2 -138.5 -92.4 -138.4 -94.3 -137.95 -96.1 -136.7 -101.2 -137.2 -106.2 -137.3 -107.25 -138.25 -107.45 -148.85 -110.2 -159.95 -108.45 -160.6 -108.35 -161.3 -108.25 -161.45 -104.8 -162.15 -101.35 -162.55 -99.4 -162.7 -98.4 -162.95 -96.7 -162.9 -95.45 -162.85 -94.5 -162.5 -92.9 -162.15 -91.1 -162.05 -90.4 -161.85 -89.15 -161.85 -85.7 -161.75 -82 -162.05 -80.2
L -162.15 -79.7
Q -162.45 -80.2 -162.7 -80.7 -162.45 -77.5 -162.3 -74.2 -162.2 -72.15 -163.1 -71.55 -164 -70.9 -165.15 -71.6 -166.15 -72.15 -166.95 -73.35
L -178.9 -90.55
Q -181.7 -94.6 -183 -96.85 -185.05 -100.5 -185.9 -103.75 -186.2 -105.05 -186.1 -106
M -210.5 -99.3
Q -215.5 -107.3 -223.2 -102.75 -224 -102.25 -224.45 -101.55 -224.45 -101.5 -224.5 -101.45 -224.1 -98.1 -224.9 -96.45 -226.25 -94.6 -226.5 -93.5 -226.6 -92.3 -226.75 -91.7 -227.25 -90.4 -227.4 -89.7 -227.55 -88.55 -227.65 -87.8 -227.45 -87.85 -227.25 -87.9 -222.35 -89.25 -217.7 -91.45 -213.1 -93.6 -209.9 -97.1 -209.85 -98.3 -210.5 -99.3
M -326.4 -1.8
Q -326.9 -1.3 -327.2 -0.6 -327.65 0.1 -327.75 0.95 -327.9 1.8 -327.8 2.6 -327.75 2.75 -327.7 2.9 -327.65 3.1 -327.6 3.25 -327.55 3.4 -327.4 3.55 -327.3 3.7 -327.3 3.85 -327.25 4.05 -327.25 4.25 -327.75 18.8 -328.8 33.3 -329.45 41.95 -329.25 50.6 -329.05 62.7 -327.65 74.75 -327.55 74.8 -327.35 74.85 -325.1 75.9 -324.9 77.75 -324.85 78.45 -325.2 79.3 -325.6 80.3 -325.8 80.8 -326.15 81.9 -326.4 84.05 -325.95 86.95 -325.45 89.85 -324.8 93.4 -322.35 95.9 -308.6 110.05 -288.75 109.1 -288.3 109.15 -287.95 109.15 -269.75 110.15 -251.75 108.4 -251.65 107.85 -251.5 107.25 -251.25 106 -250.8 105.25 -250.55 104.8 -250.15 104.45 -249.65 104.25 -249.15 104.05 -247.85 103.5 -246.75 102.7 -246.05 102.45 -245.2 102.15 -245.05 102.1 -244.85 102 -244.55 102 -244.2 102 -243.4 102 -242.65 102 -241.3 101.95 -240.1 101.55 -240.4 102 -240.6 102.45 -243.85 104.45 -247.15 106.3 -247.15 106.35 -247.2 106.45 -247.25 106.55 -247.25 106.7 -247.35 106.7 -247.4 106.75 -247.5 106.8 -247.6 106.9 -247.8 107.05 -247.85 107.3 -247.95 107.55 -247.85 107.8 -247.85 107.9 -247.8 108 -247.65 108.25 -247.4 108.4 -247.2 108.6 -246.95 108.75 -246.9 108.75 -246.85 108.8 -246.25 109.1 -245.6 109.2 -245.75 109.45 -245.8 109.75 -245.75 109.7 -245.65 109.7 -236.25 108.6 -228.05 104.15 -226 103.1 -224.95 100.95 -223.95 98.75 -222.95 96.55 -222.9 96.5 -222.8 96.45 -222.6 96.25 -222.45 95.95 -222.4 95.85 -222.35 95.7 -222.25 95.45 -222.3 95.25 -222.3 95.1 -222.3 95
L -222.3 94.95
Q -222.35 94.85 -222.35 94.8 -222.45 94.6 -222.6 94.45 -222.75 94.25 -222.9 94.1 -223.05 94 -223.25 93.9 -224.1 93.65 -224.9 93.95 -230.6 96.25 -235.8 99.5 -235.9 99.55 -236 99.65 -236 99.55 -236 99.45 -236 99.25 -236.05 99.05 -233.5 96.5 -231.4 93.6 -230 92.75 -228.65 92.05
L -225.75 90.5
Q -224 89.55 -223.25 88.9 -219.8 79.05 -218.25 68.55
L -219.35 58.95
Q -219.75 55.7 -219.75 53.8 -219.75 50.9 -219.05 48.75 -218.95 48.55 -217.9 46.2 -217.2 44.65 -217.05 43.55 -216.8 41.95 -217.25 38.65 -217.3 36.4 -216.6 33.75 -216.3 32.75 -215.8 31.25 -215.7 25.85 -215.75 20.45 -215.8 15.05 -215.2 9.75 -214 -0.8 -223.4 -2.5 -241.15 -5.75 -258.65 -2 -260.2 -1.65 -260.95 -0.2 -261.6 1.15 -262.1 2.6 -262.15 3.7 -262.2 5
L -263.15 37.2
Q -263.2 41.25 -263.45 45.3 -263.6 48.85 -263.95 51.65 -264.4 56.2 -265.4 61.05 -265.95 63.85 -266.85 65.2 -267.7 66.55 -270.35 68.35 -272.7 70.05 -274.25 70.4 -276.75 70.95 -279.2 69.35 -281.5 67.85 -282.6 65.35 -283.55 63.2 -283.75 60.25 -283.9 58.45 -283.75 54.9
L -282.8 30.55
Q -282.35 16.55 -283.05 8.4 -283.45 4.65 -282.65 2.95 -282.3 2.2 -281.7 1.7 -281.8 1.65 -281.85 1.6 -291 -3.55 -301.7 -2 -306.6 -1.3 -311.4 -2.25 -319.2 -3.7 -326.4 -1.8
M -230.95 100.55
L -230.65 100.4
Q -230.7 100.45 -230.8 100.5 -230.9 100.6 -231.05 100.65 -231 100.6 -230.95 100.55
M -328.7 -93.85
Q -328.6 -93.9 -328.55 -93.9 -327.9 -94 -327.3 -93.65 -326.7 -93.4 -326.5 -92.8 -326.25 -92.4 -326.25 -91.75 -326.25 -91.1 -326.6 -90.25 -327.05 -89.45 -327.35 -89.3 -327.5 -89.2 -327.75 -89.05 -328.6 -87.55 -329.35 -86.45 -329.3 -84.75 -328.95 -82.35 -328.7 -81.9 -328.5 -81.1 -327.55 -77.85 -327.3 -73.65 -327.2 -71.8 -327.05 -70.85
L -326.7 -68.4
Q -326.25 -65.4 -326.85 -60.1
L -326.9 -59.5 -325.55 -34.9
Q -324.7 -33.85 -324.1 -31.85 -324.05 -31.75 -324.05 -31.65 -319.05 -24.35 -310.2 -20.65 -294.35 -14.1 -276.7 -14.15 -261.9 -13.45 -248.4 -19.75 -242.5 -22.5 -239.05 -28.4 -237.5 -31.05 -236.35 -33.8 -236.2 -35.3 -236.05 -36.8 -236.25 -37.35 -236.3 -37.6 -236.75 -39.25 -236.1 -40.45 -235.9 -40.8 -235.5 -41.4 -235.4 -42.3 -235.3 -43.1
L -235.55 -43.7
Q -235.75 -44.35 -235.55 -45.6 -235.35 -46.9 -235.15 -47.3 -235 -47.55 -234.75 -48 -234.35 -51.5 -234.25 -53.4 -233.5 -63.4 -234.65 -84.5 -235.35 -97.5 -235.2 -106.55 -237.25 -109.1 -241.6 -109 -254.2 -108.75 -266.7 -110.05 -267.15 -108.45 -268.3 -106.3
L -271.55 -99.7
Q -271.85 -98 -271.85 -95.45 -271.75 -93.5 -271.75 -92.5 -271.7 -90.8 -271.85 -89.6 -272.2 -87.45 -272.35 -86.4 -272.55 -85.05 -272.6 -83 -272.65 -80.7 -272.7 -79.55 -272.75 -77.8 -273.1 -74 -273.4 -70.35 -273.45 -68.4 -273.3 -63.4 -273.55 -60.95 -274 -56.6 -276.3 -54.1 -278.5 -51.75 -281.7 -51.45 -282.3 -51.4 -282.85 -51.4 -283 -51.4 -283.15 -51.4 -283.45 -51.4 -283.7 -51.6 -284.45 -51.8 -285 -52.25 -286.3 -53.25 -286.8 -56.2 -287.75 -61.45 -288.05 -68 -288.2 -71.05 -288.2 -75.55 -288.25 -75.85 -288.25 -76.1 -288.8 -76.7 -289.4 -77.8 -290.4 -79.55 -290.75 -80.65 -291.3 -82.3 -290.95 -83.65 -290.8 -84.1 -290.45 -85.05 -290.15 -85.9 -290.25 -86.5 -290.35 -87.05 -290.9 -87.7 -291.55 -88.4 -291.85 -88.8 -293 -90.35 -292.7 -93.05 -292.55 -94.6 -291.9 -97.75 -291.6 -100.35 -292.4 -104.7 -292.6 -105.85 -292.75 -106.85 -293.55 -107 -294.6 -107.7
L -297 -109.35
Q -297.45 -109.8 -297.7 -110.25 -309.65 -110.5 -321.75 -109.55 -326.8 -109.2 -328.75 -104.6
L -329.2 -95.75
Q -329.25 -95 -329.25 -94.2 -329 -94.05 -328.7 -93.85
M 24.1 29.25
Q 24 29.75 24 30.25 23.95 30.95 24 31.85 24.05 30.55 24.1 29.25
M 274.65 27.9
L 274.75 11.25
Q 274.75 7.25 274.55 5.1 273 4.15 270.95 4.05 255.6 3 240.25 4.15 239.65 4.2 239.2 4.45 239.25 5.3 239 6.35 238.4 8.85 238.4 9.6 238.4 10.45 238.85 12.3 239.25 14.05 239.15 15 239.1 15.5 238.8 16.6 238.75 16.8 238.7 17
L 238.9 18.3
Q 239.2 21.45 239.3 27.75 239.3 29.3 238.95 29.95 238.65 30.45 238.15 30.75 237.6 31 237.1 30.8 236.45 30.55 236.05 29.2 235.6 27.75 235.35 26.65 228.35 19.95 222.75 12.15 220.65 9.2 217.55 7.45 216.6 6.9 215.6 6.4
L 211.55 8.2
Q 208.2 9.55 207.1 8.05 206.8 7.65 206.55 6.65 206.25 5.65 205.95 5.25 205.35 4.3 203.8 4.2 202.9 4.2 201.05 4.55 199 4.95 194.05 4.85 189.55 4.7 187.15 5.45 185.45 6 184.8 6.1 183.4 24.3 182.7 42.55 182.65 44.4 182.6 46.25 182.65 46.4 182.75 46.65 183.6 48.9 182.85 51.15 183.75 52.4 183.6 55.1 183.4 58.35 183.7 59.4 183.8 59.8 184.5 61.35 185.05 62.55 185.05 63.35 185.05 63.8 184.9 64.45 184.7 65.25 184.6 65.55 184.1 67.3 184.3 70.75 184.45 74.25 184.05 75.9 184.05 75.95 183.3 78.35 182.75 79.8 182.8 80.85 182.85 81.55 183.15 82.55 183.6 84.1 183.65 84.2 184.15 86.5 183.5 90.7 183.15 92.4 183.05 93.75 183.1 96.1 183.15 98.5 183.2 98.75 183.2 98.9 183.4 99.8 183.2 100.5
L 183.2 100.55
Q 183.35 103.3 183.4 106.15 183.5 110.95 188.05 111.15 192.95 111.25 197.9 111 207.35 110.45 216.8 110.65 222.25 110.8 223 105.6 223 105.4 223.05 105.25 222.5 104 222.15 103.15 222 102.75 221.9 102.35 222.95 98.4 223.1 93.45 223.2 89.35 222.8 85.35 222.95 85.5 223.15 85.7 224.05 86.75 224.1 87.75 224 89.35 224.15 90.2 224.2 90.4 224.35 90.8 224.35 88.65 224.35 86.6 226.35 88.8 227.65 90.35 234.15 98.4 242 106.85 242.95 107.85 244.1 108.45 244.5 108.7 244.9 108.9 247 109 249 109.6 249.25 109.65 251.1 110.2 252.35 110.5 253.2 110.65 254.6 110.8 257.85 110.2
L 263.65 109.1
Q 265.6 108.7 267.05 108.65 268.2 108.65 270.5 109.1
L 272.85 109.5
Q 275.2 106.8 277.6 104 277.65 103.85 277.75 103.8 276.3 84.85 277.6 65.85 278.35 55.8 278.55 45.7 278.55 45.2 278.6 44.7
L 276.6 39.6
Q 275.25 35.95 274.95 33.95 274.65 32.3 274.65 27.9
M 360.15 -105.95
Q 360.8 -103.55 361.45 -99.3 361.8 -97.2 361.8 -96.55 361.8 -96.15 361.75 -95.7
L 362.7 -90.5
Q 362.7 -90.4 362.75 -90.25 363.65 -89.65 364.4 -88.45 365.25 -87 366.25 -84.4 366.4 -84.7 366.5 -84.95 369.05 -91.2 368.55 -98.45 368.2 -103.05 365.2 -105 362.5 -106.75 359.65 -107.8 359.9 -106.9 360.15 -105.95
M 163.1 -1.25
Q 154.85 -2.6 146.45 -2.95 139.2 -3.4 133.6 0.25 133.5 0.35 133.45 0.4 133.3 0.65 133.25 0.95 133.1 0.75 132.95 0.65 132.8 0.6 132.7 0.55 132.35 0.35 132 0.25 131.65 0.15 131.25 0.15 130.9 0.15 130.5 0.25 130.15 0.35 129.8 0.55 129.45 0.7 129.2 1 128.85 1.3 128.7 1.65 128.1 3.35 128.1 5.15 128.3 18.3 128 31.45 127.7 45.05 129.65 58.3 129.8 58.5 130 58.7 130.25 58.95 130.6 59.1 131.05 59.25 131.25 59.65 131.65 60.25 132.1 60.8 132.9 61.85 133.7 62.9 133.3 75.55 132.25 88.1 131.8 94.1 133.6 99.4 133.55 99.9 133.5 100.4 133.4 101.4 133.45 102.45 133.35 103.2 133.3 104 133.15 106.1 134.2 107.9 134.35 108.1 134.55 108.3 135.4 109 136.45 109.35 137.45 109.7 138.5 109.9 143.25 110.3 148.05 110 152.75 109.7 157.25 108.25
L 157.3 108.25
Q 159.75 108.5 162.2 109 162.7 109.1 163.15 109.15 164.6 109.4 166 109.35 167.4 109.3 168.7 108.9 168.9 108.8 169.1 108.7 169.3 108.6 169.45 108.45 169.6 108.35 169.75 108.15 170.4 107.3 170.4 106.25 170.4 102.05 170.05 97.9 169.95 96.95 169.85 96 171 88.15 170.45 80.15 169.95 73.15 169.55 66.2 169.25 66.45 169.1 66.7
L 168.7 67.45
Q 168.35 67.85 167.7 68 167.3 68.1 167 68.1 166.5 68.75 165.65 69.8 164.65 71.2 164.15 71.95 163.25 73.15 162.45 73.9 160.6 75.3 159.9 76.25 159.1 77.65 158.65 78.3 157.6 80.05 155.8 81.1 154.65 81.7 154.1 81.15 153.3 80.45 154.25 79.1 154.95 78.05 156.8 76.65 158.75 75.2 159.45 74.3 159.95 73.65 160.55 72.55 160.85 71.95 161.45 70.65 162.2 69.15 165 65.95 165.55 65.4 166.05 65
L 166.15 64.4
Q 166.35 63.45 167.85 62.5
L 169.3 61.5
Q 168.75 52.25 168.35 43.05 167.45 24.85 169.1 6.65 169.65 -0.25 163.1 -1.25
M 316.45 -0.25
Q 316.35 -0.2 316.2 -0.1 316.05 0.05 315.9 0.1 315.75 0.15 315.6 0.15 307.15 0.3 298.8 1.7 296.95 1.95 295.4 2.95 287.85 7.7 288.35 17.45 289.5 37.25 288.35 56.85 288.35 57.05 288.35 57.25
L 288.5 63.45
Q 288.6 68.75 289.5 71.15 290.1 72.5 290.45 73.45 290.2 84.25 290.4 95 290.6 95.6 291.15 95.9 291.4 96.05 291.7 96.1 291.7 97.4 291.9 99.2 292.05 100.9 292.15 101.95 292.6 102.5 293.3 102.95 302.6 109.3 314.35 110.15 329.25 111.15 344.25 110.75 350.7 111.1 357 109.5 359.05 109 360.35 107.55 367.85 99.15 369.4 88.45 369.35 88.15 369.35 88.1 369.25 86.6 368.9 85.55 368.7 85.05 367.95 83.8 367.35 82.7 367.1 81.95 366.7 80.65 366.95 78.75 367.05 77.65 367.5 75.45 367.55 75.1 367.9 69.5 368.15 66.05 369.05 63.95 368.45 61.05 367.35 58.25 366.75 56.9 365.35 56.45 350.15 52.4 334 52.45 332.2 52.45 330.7 53.3 330.3 53.5 329.95 53.75 329.95 54.8 329.4 56.3
L 328 60.45
Q 327.7 61.3 327.8 61.8 327.85 62.15 328.5 63.05 328.95 63.75 329.1 64.75 328.8 65.4 328.7 66.2 328.5 68.35 328.35 70.5 328.3 70.6 328.25 70.7 328.3 70.7 328.3 70.8 328.3 71.1 328.25 71.45 328.05 73.85 329.45 75.6 329.7 75.85 330 76.1 330.35 76.3 330.75 76.35 331.15 76.5 331.35 76.75 331.9 77.2 332.55 77.55 334.9 78.7 337.5 79.2 337.8 79.25 338.15 79.35 338 80.8 337.8 82.25 337.65 83.2 337.6 84.1 336.8 84.85 336.1 85.55 332.05 86 327.9 85.65 323.2 85.35 321.05 83.25 319.95 82.05 319.1 80.15 318.2 77.65 318 75.3 317.9 74.65 317.75 71.35 317.75 68.3 317.9 67.3 318.15 66 318.75 63.4 318.85 62.6 318.95 61.2 318.85 59.4 318.95 57.45 318.9 53.5 318.9 50.55 318.85 49.75 318.75 48.95 318.1 42.5 321.2 39.35
L 321.1 37.15
Q 321.1 34.4 321.85 33.3 322.45 32.4 324 31.75 325.25 30.2 327.5 29.1 330.9 27.5 333.1 29 334.8 30.05 335.55 33.1 336.4 35.95 336.3 39.1 336.8 39.6 337.8 40.2 338.4 40.55 339.55 41.15 341.55 42.2 342.1 43.85 348.15 43.55 354.2 44.5 361.5 45.6 367.75 42.95 369.7 27.2 365.5 11.4 364.95 9.1 363.65 7.35 359.55 1.65 352.35 0.15 334.5 -3.5 316.45 -0.25
M 224.7 -17
Q 225 -17 225.35 -17 225.1 -17.4 224.95 -17.85 224.8 -17.4 224.7 -17
M 302.15 -105.55
Q 299.95 -105.3 298.25 -104 296 -102.2 294.25 -100.15 294.15 -99.2 294.2 -97.95
L 294.35 -93.5
Q 294.45 -91.05 294.3 -89.85 293.75 -86.8 293.7 -85.25 293.85 -82.85 293.8 -81.65 293.75 -78.45 291.15 -73.65 289.75 -71.15 288.6 -70.35 288.5 -70.25 288.4 -70.2 288.65 -58.35 288.7 -46.5 288.8 -35.7 290.1 -25.05 290.35 -22.95 292 -21.6 301.4 -13.9 314.05 -14.5 331.55 -15.35 348.95 -12.95 349.45 -12.9 350 -12.95 351.25 -13.05 352.4 -13.45 353.95 -14.05 353.8 -13.95 354.35 -14.15 355.7 -14.8 358.95 -16.25 360.9 -19.15 365.2 -25.6 366.05 -33.4 366.25 -35.4 366.4 -37.35
L 365.5 -39.95
Q 364.65 -42.6 365 -43.8 365.35 -44.9 366.65 -46.1 366.6 -47.25 366.6 -48.35 366 -49.25 365.65 -50.2 364.95 -52.15 365.6 -53.8 365.75 -54.15 366.15 -54.8 366 -55.85 365.9 -56.9 365.5 -60.25 365.15 -61.75 364.3 -64.4 361.4 -64.7 351.25 -65.85 341.1 -66.75 333.05 -67.45 325.2 -66.3 325.15 -66.2 325.1 -66.05 324 -62.2 323.7 -57.85 323.6 -56.2 324.05 -55.35 324.45 -54.75 325.45 -53.7 326.1 -52.6 325.7 -50.9 325.05 -48.95 324.75 -48 324.5 -46.85 324.3 -46.3 324.3 -46.25 324.25 -46.15 331.15 -44.1 338.45 -43.25 338.35 -42.75 338.3 -42.25 338.2 -41.1 337.85 -40.05 337.4 -38.85 336.35 -38.15 335.2 -38 334.1 -38.2 330.35 -38.9 326.6 -39.4 322.8 -39.9 319 -39.95 317.85 -40.55 317.5 -41.85 314.95 -51.6 315.4 -61.75 315.6 -66.9 316.65 -71.9 319.1 -83.25 330.1 -79.25 330.5 -78.7 330.7 -78.1 331.1 -77 331.45 -75.9 331.8 -74.8 332.5 -73.95 334.55 -72.55 337.05 -72.25 349.05 -71.05 360.85 -72.2 361.85 -72.25 362.2 -73.05 363.85 -76.95 364.2 -81.2
L 363.85 -82.8
Q 363.35 -85.2 362.7 -86.25 362.6 -86.4 361.95 -87.3 361.8 -87.5 361.7 -87.7 361.3 -87.65 360.8 -87.8 359.95 -88.1 359.6 -89.05 359.45 -89.45 359.2 -90.9 359.1 -91.6 358.75 -92.95
L 358.55 -95.2
Q 358.5 -95.5 358.25 -96.7 358.05 -97.6 358 -98.2 357.95 -98.95 358.15 -100.1 357.85 -101.9 357.4 -104.5 356.9 -107.05 356.05 -108.9 351.1 -110 345.7 -109.3 341.45 -109.95 336.85 -109.45 319.5 -107.6 302.15 -105.55
M 251.6 -106.7
Q 251.5 -106.65 251.4 -106.65 251.2 -106.6 251 -106.5 250.8 -106.45 250.65 -106.35 250.45 -106.25 250.25 -106.1 249.45 -105.3 249.05 -104.3
L 249 -104.35
Q 248.7 -104.5 248.4 -104.6 248.2 -104.65 247.95 -104.65 247.65 -104.7 247.3 -104.65 247 -104.55 246.7 -104.45 246.4 -104.3 246.15 -104.1 245.5 -103.55 245.2 -102.8 244.35 -100.75 244.5 -98.6 244.7 -96.2 245.4 -93.9 245.4 -93.7 245.4 -93.5 245.45 -92.65 245.5 -91.85 245.5 -91.05 245.55 -90.2 245.55 -90 245.6 -89.85 245.65 -89.65 245.7 -89.45 245.75 -89.3 245.85 -89.1 245.95 -88.95 246.05 -88.8 246.15 -88.65 246.3 -88.55 246.5 -88.35 246.75 -88.2
L 246.8 -88.15
Q 245.8 -84.6 245.7 -80.9 245.6 -77.75 245.5 -74.6 243.7 -76.55 241.9 -78.45 239.6 -83.8 236.35 -88.45 234.8 -90.65 233.05 -92.4 232.3 -94.95 231.5 -97.5 230.15 -101.8 226.95 -104.2 226.6 -105.25 226.3 -106.3 222.1 -106.25 217.95 -106 216.7 -106.75 215.25 -107.15 211.85 -108.1 208.4 -108.65 201.7 -109.8 195.9 -107.25 195.8 -107.05 195.65 -106.9 195.45 -106.7 195.3 -106.55 195.15 -106.4 195 -106.25 194.55 -105.25 194.6 -104.15 194.95 -86.55 194.5 -69 194.25 -58.4 194.15 -47.8 194.9 -47.3 195.4 -46.3 196.35 -44.75 196.55 -43.45 196.75 -42.05 196.05 -39.85 195.2 -37.1 195.1 -36.3 195 -35.65 195 -33.2 194.9 -31.8 195.15 -31.15 195.25 -30.8 195.65 -30.3 196.15 -29.65 196.25 -29.45 196.95 -28.4 197 -27.15 197.05 -25.85 196.3 -24.95 195.55 -23.95 194.2 -23.85 193.85 -23.85 193.5 -23.9 193.25 -17.5 199.15 -16.05 202.7 -16.1 206.2 -16.3 208.2 -16.4 210.2 -16.55 210.3 -16.5 210.45 -16.45 211.35 -16.25 212.3 -16.25 213.25 -16.25 214.15 -16.2 215.05 -16.15 215.95 -16.3 217 -16.45 218.05 -16.55 219.1 -20.25 219.65 -24.85 220.1 -28.15 220.55 -34.95
L 220.7 -36.95
Q 223.5 -32.2 227.1 -28.25 228.75 -22.15 231.85 -16.8 232.35 -16.75 232.85 -16.7 240.55 -16 247.8 -17.05 249.15 -16.1 251.3 -16.25 257.1 -16.3 262.95 -16.45 268.9 -16.6 274.75 -17.65 274.85 -17.7 275 -17.75 275.15 -17.8 275.3 -17.95 275.5 -18.1 275.65 -18.3 275.75 -18.4 275.8 -18.5 276.55 -20.8 276.25 -23.25 276.05 -25.2 275.05 -26.75 275 -27.25 274.75 -27.95
L 273.55 -31.15
Q 272.95 -32.75 272.95 -33.65 272.95 -34.8 273.65 -36.2 274.3 -37.7 275.25 -39.25 274.65 -53.35 274.1 -67.4 273.9 -73 273.35 -78.55 274.2 -79.45 274.6 -80.65 274.7 -80.7 274.8 -80.7 274.95 -80.75 275.15 -80.85 275.35 -80.9 275.5 -81 275.65 -81.1 275.8 -81.25 276.05 -82 276.3 -82.8 275.95 -83.15 275.8 -83.45 275.2 -84.6 275.85 -85.7 275.9 -85.8 276.9 -86.95 277.25 -87.35 277.55 -87.6 279.25 -96.25 275.45 -103.9 274.7 -105.4 273.15 -105.75 264.7 -107.65 256.05 -106.8 256.05 -106.7 256 -106.6 256 -106.45 255.95 -106.3 255.45 -106.35 254.95 -106.45 253.25 -106.75 251.6 -106.7
M 273.75 -20.05
Q 273.65 -20.5 273.55 -20.95 273.65 -21.1 273.75 -21.2 273.75 -20.65 273.75 -20.05
M 102.6 -0.05
Q 83.75 -5 64 -3.75 54.8 -3.15 47.35 1.45 46.15 2.25 45.2 3.2 40.75 5.45 39.15 10.45 37.65 15.1 37.2 20 36.4 22.75 35.95 25.6 35.55 25.7 35.25 26 34.9 26.35 34.65 26.75 34.4 27.2 34.2 27.7 34.1 28.05 34.05 28.45 33.95 29.65 34.25 30.8 34.6 31.9 34.9 33.05 34.95 33.1 34.95 33.15 35 33.35 35.15 33.5 34.95 38.45 35.6 43.55 36.15 48.1 39 51.7 39.3 52.1 39.65 52.45 41.35 54.4 43.25 56.05 50.8 62.5 61.45 63.45
L 61.5 63.5
Q 64.75 66.85 69.45 66.35 73.8 65.9 78.2 66.6 78.25 66.6 78.35 66.6 78.5 66.6 78.65 66.6 78.75 66.6 78.85 66.6 79.55 67.4 79.95 68.4 80.4 69.6 80.5 71.5 80.5 73.65 80.55 74.7 80.55 75.45 80.8 77.9 81.05 79.9 80.95 81.15 80.75 82.85 80 84.2 79.1 85.75 77.75 86.15 75.95 86.85 74.15 85.45 72.45 84.2 71.85 82 71.4 80.2 71.7 77.85 71.75 77.65 71.8 77.4 71.6 77.3 71.45 77.25 56.6 71.8 40.6 74.45 39.05 74.6 38.6 76 38.45 76.45 38.3 76.95 38.45 82.35 38.25 87.7 38.05 91.2 38.65 93.05 38.85 93.7 39.35 94.8 39.95 96.05 40.15 96.55 41.1 99.05 41.05 103.8 43.15 107.35 47.35 107.95 65.65 110.65 84.25 111.35 97.75 111.7 110.15 106.65 110.5 106.5 110.8 106.4 111.1 104.7 111.3 102.8 111.4 102.75 111.45 102.75 112.55 102.35 113 101.2 113.45 100.05 113.9 98.85 113.9 98.35 114 97.85 114.05 97.65 114.2 96.9 116.2 95.7 117.95 94.2 120.05 87.5 119.8 80.3 119.6 74.6 120.3 68.9 121.6 57.75 114.45 51.85 113.35 50.4 111.7 49.3 109.2 43.75 102.5 42.6 99.9 42.15 97.4 41.6 96.9 41.6 96.45 41.65 92.65 41.95 90.8 41.9 88.05 41.9 84.05 41.35 79.5 40.65 77.25 40.4 74.3 40.05 73.25 38.9 71.7 37.15 72.7 32.8
L 73.75 28.25
Q 73.8 27.95 73.9 27.65
L 73.95 27.25
Q 74.25 25.4 74.7 24.55 75.6 22.85 77.45 22.55 79.25 22.3 80.6 23.65 81.5 24.55 82.05 26.4 82.55 28 82.7 29.7 82.7 31.85 82.8 33.1 83.6 33.5 84.45 33.95 88.25 34.5 90.75 34.55 92.55 34.65 97.75 34.3 102.1 34 104.7 34.3 105.95 34.4 108.8 34.9 111.4 35.4 112.8 35.5 112.85 35.5 112.95 35.5 114.75 34.25 115.35 31.55 115.45 31.15 115.5 30.7 115.2 30.7 114.9 30.55 113.7 30 113.7 27.4 113.6 19.75 113.85 14.7 113.85 14.1 113.9 13.3 112.35 8.9 109.65 4.9 107.05 1.15 102.6 -0.05
M 152.55 -97.55
Q 152.55 -97.45 152.6 -97.4 152.65 -97.3 152.7 -97.2 152.7 -97.1 152.7 -97 152.6 -94.15 152.7 -91.3 152.75 -89.9 152.8 -88.45 153.65 -88.1 154.55 -87.6 155.45 -87.15 155.9 -86.65 156.15 -86.3 156.3 -85.85 158.25 -87.2 160.45 -88.3 162.25 -89.2 163.35 -89.2 164.75 -89.25 166.45 -88.1 167.15 -87.65 168.25 -86.9 167.8 -87 167.4 -87.3 165.25 -87.3 163.35 -86.15 162.85 -85.8 162.35 -85.45 161.45 -85.15 160.4 -84.5 155.15 -81.25 153 -79.3 153.15 -67.8 153.05 -56.25 152.95 -38.5 153.45 -21.4 153.5 -20.05 154.6 -19.5 161.9 -15.75 170.5 -16.75 171.4 -16.75 172.35 -16.75 175.1 -16.8 177.8 -17 180.2 -17.15 182.1 -18.45 184.3 -24.75 184.15 -31.75 183.9 -41.35 183.6 -50.9 182.45 -54.65 182.7 -58.6 182.8 -60.95 182.5 -61.7 182.3 -62.25 181.45 -63.3 180.65 -64.3 180.45 -64.9 180.2 -65.8 180.75 -67.85
L 182.75 -74.15
Q 182.55 -79.6 182.35 -85.05 181.45 -84.35 180.75 -84.4 181.45 -85.75 181.25 -87.45 181.2 -87.95 181.15 -88.4 181.65 -88.75 182.1 -89.4
L 182.15 -89.45
Q 181.9 -96.4 181.65 -103.35 181.6 -105 180.35 -105.85 176.2 -108.65 170.8 -107.85 166.3 -107.15 161.8 -107.55 150.9 -108.6 152.45 -97.75 152.5 -97.65 152.55 -97.55
M 26.4 -0.75
Q 24.8 -1.95 22.75 -1.95 21.9 -1.95 21.1 -1.85 12.1 -6.25 1.65 -3.95 -0.6 -3.45 -2.9 -3.9 -9.95 -5.25 -12 0.65 -14.15 7.9 -14.4 15.65 -14.8 33.45 -14.6 51.2 -14.4 50.8 -14.15 50.5 -14.1 50.35 -14 50.3 -14.05 51.75 -14 53.25 -13.95 53.35 -13.85 53.45 -13.45 53.8 -13.2 54.2
L -14.55 56.3
Q -14.5 64.15 -14.6 72.05 -12.3 66.3 -10.8 60.95 -10.75 60.8 -10.7 60.6 -10.55 62.15 -10.4 63.65 -10.85 65.05 -11.25 66.45 -11.8 68.25 -11.45 70.1 -11.55 70.5 -11.6 70.95 -11.7 71.85 -11.7 72.8 -13.2 76.8 -14.75 80.75 -14.85 85.2 -15 89.6 -15.15 94.2 -15.55 98.8 -16.1 106.8 -9.1 108.55 -8.5 108.55 -7.8 108.5 -5.25 108.25 -2.8 107.75
L -0.05 107.15 0.4 107.1 0.5 107.1
Q 0 107.15 1.25 107.1 5.45 107 9.65 107.45 14.65 108 19.7 107.9 19.85 108 20.1 108.05 20.3 108.15 20.5 108.25 20.7 108.35 20.9 108.4 21 108.4 21.1 108.4 21.35 108.4 21.55 108.35 21.8 108.35 22 108.25 22.2 108.15 22.35 108.05 22.45 107.75 22.55 107.5 22.4 104.3 22.55 100.8 22.8 94.1 23.6 80.6 23.6 76.95 23.3 69.85 22.7 56.2 21.8 41 21.8 40.95 21.8 40.85 22.1 38.9 22.3 36.95 22.25 36.35 22 35.75 21.6 34.85 21.35 33.95 21.3 33.35 21.25 32.75 21.25 32.55 21.25 32.4 21.4 31.2 21.4 30 21.45 28.3 21.55 26.65 21.55 26.5 21.6 26.35 22.25 24.3 24.9 21.05 25.7 20.05 26.45 19.55 26.35 18 26.25 16.45 27.15 13.75 27.15 10.75 27.1 5.7 27.1 0.65 27.05 0.35 26.95 0.1 26.85 -0.2 26.65 -0.5 26.55 -0.65 26.4 -0.75
M 5.5 -107.15
Q 5.45 -107.1 5.35 -107 5.3 -106.95 5.2 -106.9
L 5.2 -106.8
Q 5.05 -106.95 4.8 -107.05 4.65 -107.15 4.4 -107.1 4.3 -107.05 4.15 -107 2.55 -98.25 3.05 -89.1 3.6 -79.25 3.8 -69.35 4.05 -68.5 4.25 -67.8
L 4.95 -64.85
Q 5.5 -63.05 5.5 -62.5 5.55 -61.3 4.4 -59.55 4.05 -59.1 3.95 -58.7 3.9 -57.95 3.95 -57.1 4 -57 4.05 -56.9 4.2 -56.6 4.6 -56 4.95 -55.2 5.15 -53.85
L 5.4 -51.3
Q 5.45 -50.4 5.15 -47.7
L 4.7 -44.4
Q 4.35 -41.6 3.95 -39.55 3.9 -36.25 3.9 -32.95 3.9 -29.3 3.6 -25.7 3.15 -20.35 5.35 -16.1 5.4 -16.05 5.5 -16 5.6 -15.95 5.65 -15.95 5.75 -15.9 5.85 -15.85 6 -15.8 6.05 -15.8 6.4 -15.7 6.75 -15.75 8.4 -15.9 10.05 -16.15 15.8 -17.05 21.65 -16.85 28.2 -16.6 34.55 -17 35.2 -17.65 35.35 -18.6 36.05 -23.75 35.45 -29 34.7 -35.2 34.4 -40.45 34.5 -40.3 34.65 -40.1 34.85 -39.75 35.15 -39.4
L 35.1 -39.5
Q 37.3 -36.35 39.15 -32.9 41.55 -28.35 44.25 -24 45.85 -21.45 47.1 -20.35 48.2 -19.2 49.6 -19.25 53.9 -19.25 56.7 -23.6 57 -24.05 57.3 -24.45 58.5 -25.15 59.45 -26.1 61.15 -27.75 62.8 -28.75 62.95 -28.65 63.05 -28.55 63.1 -28.5 63.2 -28.45 62.1 -26.7 61.35 -24.65 61.2 -24.4 61.05 -24.15 60.55 -23.5 60.05 -22.9 59.95 -22.75 59.65 -22.05 59.55 -21.8 59.25 -21.6 58.85 -21.35 58.45 -21 58.05 -20.7 57.8 -20.25 57.75 -20.2 57.75 -20.15 57.7 -19.95 57.65 -19.75 57.65 -19.5 57.7 -19.25 57.7 -19.1 57.75 -19 57.85 -18.85 57.95 -18.7 58.05 -18.55 58.15 -18.45 58.25 -18.35 58.45 -18.25 58.6 -18.15 58.85 -18.2 59.75 -18.25 60.65 -18.1 61.55 -18 62.4 -17.9 63.45 -17.85 64.4 -17.9 66.65 -18.1 68.8 -18 71.1 -17.9 73.4 -18.15 73.45 -18.15 73.45 -18.2 73.55 -18.25 73.6 -18.3 73.7 -18.35 73.8 -18.4 73.85 -18.5 73.9 -18.55 74.75 -22.2 74.7 -26.1 74.65 -30.05 73.55 -33.55 73.55 -33.75 73.55 -33.95 73.5 -34.75 73.5 -35.55 73.45 -36.25 73.4 -36.95 73.35 -37 73.35 -37.05 73.3 -37.2 73.25 -37.3 73.2 -37.4 73.15 -37.5 73.05 -37.6 73.05 -37.65 72.9 -37.8 72.75 -37.9 72.6 -38.05 72.3 -38.05 72.1 -38.1 71.9 -38.05 71.85 -38 71.8 -37.95 69.1 -35 66.25 -32.25 66.15 -32.15 66 -32 67.1 -33.85 67.8 -35.9 68.45 -37.8 68.85 -39.75 70.3 -42.05 71.65 -44.45 71.5 -45.25 71.05 -45.85 68.55 -48.55 65.95 -51.1 63 -53.9 60.5 -57.2 65 -61.4 65.55 -67.95 66.15 -74.65 66.15 -81.35 66.15 -82.45 66.1 -83.5 65.95 -84.4 65.9 -85.25 65.85 -85.85 65.95 -86.4 64.9 -96 60.15 -104.05 59.35 -105.45 57.95 -105.95 46.35 -109.95 34.1 -109.65 29.4 -109.5 24.65 -109.3 15.15 -108.8 5.8 -107.35 5.7 -107.3 5.6 -107.25 5.6 -107.2 5.5 -107.15
M 40.55 -82
Q 42.65 -80.65 43.25 -78.6 43.6 -77.25 43.35 -75.55 43.2 -74.45 42.6 -72.55 42 -70.35 41.3 -68.75 40.25 -66.3 38.5 -65.15 37.5 -64.5 36.3 -64.45 35.8 -64.45 35.35 -64.5 34.65 -64.3 33.85 -64.2 33.6 -64.15 33.3 -64.15 33 -64.15 32.75 -64.15 32.6 -64.15 32.45 -64.25 32.25 -64.9 32.2 -65.6 32.1 -67.35 32 -69.05 31.65 -69.5 31.45 -69.75 31 -70.45 30.85 -71.05 30.65 -72.05 31.25 -73.8 31.35 -74.15 31.5 -74.45 31 -79.15 30.75 -83.55 30.85 -83.6 31 -83.6 31.8 -83.7 32.6 -83.6 33 -83.6 33.35 -83.5 34.5 -83.95 36.2 -83.65 38.7 -83.25 40.55 -82
M 108.75 -107.2
L 99.4 -107.2
Q 95.75 -107.1 93.65 -107.55 92.8 -107.75 91.4 -108.15 87.2 -107.05 83.75 -104.65 81.9 -88.45 82.45 -71.9 82.9 -59.95 82.7 -47.95 84.8 -44.95 84.6 -42.1 84.1 -39.75 84.2 -38.55 84.3 -37.8 84.75 -36.7 85.3 -35.3 85.4 -34.95 85.9 -33.45 85.6 -31.85 85.3 -30.25 84.3 -29.05 83.75 -28.35 83.15 -28.15 83.55 -23.75 84.2 -19.45 85.75 -18.1 87.9 -18.1 97.4 -18.15 106.9 -17.8 116.4 -17.45 125.9 -17.25 126.6 -17.2 127.3 -17.2 129.7 -17.2 132.15 -17.25 134.35 -17.3 136.5 -17.8 136.95 -17.8 137.3 -17.7 138.15 -17.55 139.05 -17.65 139.85 -17.75 140.5 -18.2 142.1 -19.75 142.25 -22.05 141.8 -22.65 141.7 -23.15 141.45 -24.1 142.05 -25 142.2 -25.3 142.45 -25.6 142.75 -31.4 142.75 -37.2 142.7 -44.5 140.8 -51.2 139.55 -52.3 137.85 -52.35 133.65 -52.45 129.55 -53.1 128.75 -52.5 127.8 -52.3 126.55 -52.05 125.6 -52.6 125.15 -52.85 124.35 -53.6 124 -53.95 123.7 -54.2 118.75 -55.05 113.85 -54.8 113 -60.7 113.1 -66.7 113.25 -84.85 112.7 -102.95 112.65 -105.1 110.9 -106.1 109.85 -106.7 108.75 -107.2 Z"/>
</g>
</defs>

<g transform="matrix( 1, 0, 0, 1, 329.35,110.3) ">
<g transform="matrix( 1, 0, 0, 1, 0,0) ">
<use xlink:href="#Logo_8_0_Layer0_0_FILL"/>
</g>
</g>
</svg>
